<?xml version="1.0" standalone="no"?>
<!DOCTYPE svg PUBLIC "-//W3C//DTD SVG 20010904//EN"
 "http://www.w3.org/TR/2001/REC-SVG-20010904/DTD/svg10.dtd">
<svg version="1.0" xmlns="http://www.w3.org/2000/svg"
 width="512.000000pt" height="512.000000pt" viewBox="0 0 512.000000 512.000000"
 preserveAspectRatio="xMidYMid meet">

<g transform="translate(0.000000,512.000000) scale(0.100000,-0.100000)"
fill="#000000" stroke="none">
<path d="M2380 5114 c-19 -2 -78 -9 -130 -14 -330 -36 -695 -160 -990 -336
-375 -224 -680 -529 -904 -904 -175 -292 -290 -632 -338 -990 -16 -124 -16
-477 1 -610 54 -432 215 -847 463 -1192 l56 -78 -25 -60 c-60 -150 -30 -303
82 -415 62 -62 126 -94 215 -108 261 -40 485 212 416 471 -57 212 -284 332
-494 259 l-42 -15 -59 82 c-214 299 -359 673 -412 1066 -20 144 -17 480 4 620
56 360 176 675 372 970 233 352 540 624 920 813 225 112 451 183 715 224 158
24 511 24 660 -1 58 -9 131 -20 162 -23 54 -5 59 -4 87 25 51 50 38 122 -28
156 -53 28 -296 57 -501 61 -107 2 -211 1 -230 -1z m-1522 -4211 c-27 -53 -30
-64 -26 -134 4 -60 10 -86 32 -123 l27 -46 -32 0 c-113 0 -205 126 -170 233
25 73 95 126 168 127 l32 0 -31 -57z"/>
<path d="M3424 4922 c-51 -41 -57 -97 -15 -144 24 -27 36 -33 71 -33 72 0 121
76 89 138 -18 35 -51 57 -89 57 -19 0 -45 -8 -56 -18z"/>
<path d="M4160 4704 c-197 -53 -318 -264 -266 -462 57 -212 284 -332 494 -259
l42 15 59 -82 c214 -299 359 -673 412 -1066 20 -144 17 -480 -4 -620 -56 -360
-176 -675 -372 -970 -233 -352 -540 -624 -920 -813 -225 -112 -451 -183 -715
-224 -154 -24 -485 -23 -657 1 -111 15 -126 15 -153 1 -37 -19 -50 -43 -50
-90 0 -57 38 -89 125 -103 214 -34 507 -39 725 -12 783 99 1475 555 1884 1240
175 292 290 632 338 990 16 124 16 477 -1 610 -54 432 -215 847 -463 1192
l-56 78 25 60 c60 150 30 303 -82 415 -57 57 -119 91 -195 105 -69 13 -103 12
-170 -6z m120 -191 c0 -5 -11 -30 -25 -57 -36 -72 -35 -163 3 -240 l29 -56
-31 0 c-18 0 -52 10 -76 23 -132 66 -132 248 0 315 43 21 100 30 100 15z"/>
<path d="M2471 4433 c-82 -49 -211 -170 -263 -246 -51 -76 -101 -184 -122
-267 -24 -91 -32 -253 -17 -346 7 -41 11 -78 9 -80 -3 -2 -27 3 -54 12 -68 21
-282 30 -370 15 -105 -19 -148 -41 -166 -87 -46 -113 -49 -366 -8 -499 35
-112 124 -273 174 -314 25 -21 19 -29 -26 -36 -74 -12 -124 -41 -141 -83 -45
-111 -48 -367 -7 -496 45 -142 103 -239 204 -345 87 -89 170 -151 268 -195
124 -57 194 -71 361 -71 l147 0 0 -332 c0 -357 2 -373 51 -399 42 -21 75 -17
111 15 l33 29 3 344 3 343 147 0 c166 0 236 14 360 71 98 44 181 106 268 195
101 106 159 203 204 345 41 129 38 385 -7 496 -17 42 -67 71 -140 83 -46 7
-52 15 -27 36 50 41 139 202 174 314 42 136 37 393 -10 501 -20 47 -57 66
-166 85 -86 15 -301 6 -368 -15 -27 -9 -51 -14 -53 -12 -2 2 1 34 8 72 16 93
6 279 -21 372 -24 87 -78 196 -130 266 -48 66 -160 171 -233 220 -83 55 -117
56 -196 9z m192 -265 c126 -127 181 -249 194 -432 14 -203 -72 -407 -228 -536
-33 -28 -63 -50 -67 -50 -4 0 -36 24 -70 53 -141 118 -217 269 -229 452 -8
122 15 234 69 345 33 67 58 102 124 167 52 52 90 83 104 83 14 0 52 -30 103
-82z m-713 -853 c215 -51 407 -227 477 -439 22 -69 26 -100 27 -203 1 -81 -3
-126 -11 -134 -6 -6 -51 -14 -100 -16 -214 -13 -407 73 -546 242 -100 121
-147 250 -147 403 0 118 7 150 34 155 52 10 207 5 266 -8z m1507 2 c17 -17 16
-229 -2 -296 -79 -307 -365 -516 -678 -498 -49 2 -93 9 -98 14 -19 19 -22 156
-5 250 27 154 98 280 213 380 133 116 269 164 450 160 61 -1 115 -6 120 -10z
m-1495 -937 c222 -56 400 -227 469 -450 19 -60 24 -98 24 -192 0 -77 -4 -121
-12 -129 -20 -20 -188 -23 -273 -5 -216 45 -417 224 -491 436 -24 70 -37 224
-25 304 8 52 9 53 141 54 60 1 116 -5 167 -18z m1495 7 c4 -5 8 -70 8 -145 0
-118 -3 -146 -23 -202 -35 -97 -87 -176 -172 -260 -135 -134 -299 -197 -488
-187 -53 2 -98 9 -105 16 -8 8 -12 52 -11 134 1 105 5 133 28 202 46 133 123
241 231 322 131 99 241 133 412 130 61 -1 115 -6 120 -10z"/>
<path d="M1613 368 c-68 -18 -88 -110 -37 -162 36 -35 91 -36 133 0 26 21 31
33 31 69 0 71 -56 111 -127 93z"/>
</g>
</svg>
