<?xml version="1.0" standalone="no"?>
<!DOCTYPE svg PUBLIC "-//W3C//DTD SVG 20010904//EN"
 "http://www.w3.org/TR/2001/REC-SVG-20010904/DTD/svg10.dtd">
<svg version="1.0" xmlns="http://www.w3.org/2000/svg"
 width="512.000000pt" height="512.000000pt" viewBox="0 0 512.000000 512.000000"
 preserveAspectRatio="xMidYMid meet">

<g transform="translate(0.000000,512.000000) scale(0.100000,-0.100000)"
fill="#000000" stroke="none">
<path d="M2240 4520 l0 -450 150 0 150 0 0 450 0 450 -150 0 -150 0 0 -450z"/>
<path d="M950 4812 c-36 -31 -87 -75 -113 -97 l-48 -41 287 -334 c157 -184
293 -343 302 -352 16 -16 24 -11 127 78 61 52 109 99 107 105 -2 8 -591 700
-595 699 -1 -1 -31 -27 -67 -58z"/>
<path d="M3510 4524 c-162 -190 -296 -348 -298 -353 -2 -5 47 -52 108 -106
l111 -98 29 34 c15 19 150 176 299 349 149 173 271 318 271 321 0 5 -128 117
-210 185 -13 10 -60 -41 -310 -332z"/>
<path d="M303 3554 c-10 -26 5 -330 21 -436 56 -360 202 -689 433 -975 l82
-101 -420 -327 -419 -326 0 -191 0 -190 38 28 c20 16 293 229 607 473 314 245
601 464 639 488 79 48 189 88 291 103 45 7 259 10 595 8 l525 -3 62 -29 c95
-44 178 -141 198 -233 l7 -33 -451 0 -452 0 3 -152 3 -153 627 -3 627 -2 611
535 c336 295 622 540 636 545 36 14 109 12 147 -4 97 -40 135 -178 74 -264
-12 -17 -350 -330 -751 -696 l-728 -666 -1030 0 -1029 0 -432 -367 c-238 -202
-449 -382 -470 -400 l-37 -33 232 0 233 0 294 250 294 250 1032 0 1032 0 379
347 c928 848 1171 1072 1202 1107 93 106 133 280 97 419 -77 296 -389 452
-661 332 l-56 -25 6 23 c47 163 76 372 76 565 l0 152 -2080 0 c-1904 0 -2081
-1 -2087 -16z m3857 -326 c-1 -38 -22 -164 -39 -225 l-12 -43 -1724 0 c-949 0
-1725 3 -1725 6 0 3 -9 49 -19 102 -11 54 -22 118 -26 145 l-6 47 1775 0 1776
0 0 -32z m-175 -585 c-24 -65 -140 -242 -223 -340 -20 -24 -141 -136 -269
-248 l-232 -204 -10 48 c-47 219 -215 404 -435 479 l-81 27 -556 3 c-457 2
-574 0 -657 -12 -127 -19 -231 -53 -349 -116 l-93 -48 -56 61 c-61 67 -180
240 -220 318 l-24 49 1606 0 c1526 0 1606 -1 1599 -17z"/>
</g>
</svg>
