<?xml version="1.0" standalone="no"?>
<!DOCTYPE svg PUBLIC "-//W3C//DTD SVG 20010904//EN"
 "http://www.w3.org/TR/2001/REC-SVG-20010904/DTD/svg10.dtd">
<svg version="1.0" xmlns="http://www.w3.org/2000/svg"
 width="512.000000pt" height="512.000000pt" viewBox="0 0 512.000000 512.000000"
 preserveAspectRatio="xMidYMid meet">

<g transform="translate(0.000000,512.000000) scale(0.100000,-0.100000)"
fill="#000000" stroke="none">
<path d="M3920 4905 l0 -105 -760 0 -760 0 0 -80 0 -80 840 0 840 0 0 55 0 55
265 -132 c146 -73 265 -135 265 -138 0 -3 -119 -65 -265 -138 l-265 -132 0 55
0 55 -1160 0 -1160 0 0 -80 0 -80 1080 0 1080 0 0 -105 0 -105 525 262 c289
145 525 265 525 268 0 3 -236 123 -525 268 l-525 262 0 -105z"/>
<path d="M1760 4720 l0 -80 80 0 80 0 0 80 0 80 -80 0 -80 0 0 -80z"/>
<path d="M2080 4720 l0 -80 80 0 80 0 0 80 0 80 -80 0 -80 0 0 -80z"/>
<path d="M1525 4074 c-709 -76 -1277 -596 -1417 -1297 -32 -161 -32 -433 0
-594 130 -650 619 -1140 1272 -1274 150 -31 420 -33 575 -5 211 38 432 126
607 243 105 71 232 178 288 244 l41 49 971 0 c733 0 981 3 1012 12 55 16 138
99 154 154 17 59 17 1689 0 1748 -16 55 -99 138 -154 154 -31 9 -278 12 -1008
12 l-968 0 -87 88 c-227 228 -507 378 -827 442 -97 20 -367 34 -459 24z m220
-173 c55 -24 131 -113 182 -208 42 -79 105 -241 118 -300 l7 -33 -372 0 -372
0 7 33 c13 59 76 221 118 300 72 135 171 227 247 227 14 0 43 -9 65 -19z
m-395 -26 c0 -3 -12 -24 -27 -48 -57 -91 -120 -251 -179 -454 -4 -16 -594 -19
-594 -3 0 5 48 58 108 117 168 170 357 287 577 359 104 35 115 37 115 29z
m770 -25 c197 -65 386 -174 533 -310 l77 -72 -29 -33 c-16 -19 -32 -43 -36
-54 -6 -20 -13 -21 -226 -21 -167 0 -220 3 -223 13 -48 175 -130 380 -185 462
-37 54 -33 55 89 15z m1320 -730 l0 -240 400 0 400 0 0 240 0 240 295 0 296 0
24 -25 25 -24 0 -831 0 -831 -25 -24 -24 -25 -991 0 -991 0 -24 25 -25 24 0
831 0 831 25 24 24 25 296 0 295 0 0 -240z m640 80 l0 -160 -240 0 -240 0 0
160 0 160 240 0 240 0 0 -160z m-2980 -12 c0 -7 -9 -74 -20 -148 -18 -124 -40
-371 -40 -447 l0 -33 -398 0 -398 0 8 78 c16 160 64 323 140 480 l40 82 334 0
c261 0 334 -3 334 -12z m994 -3 c18 -48 65 -478 66 -602 l0 -23 -480 0 -480 0
0 28 c0 111 48 551 65 600 3 9 95 12 414 12 359 0 410 -2 415 -15z m546 -305
l0 -320 -160 0 -160 0 0 28 c0 78 -23 334 -40 452 -11 74 -20 141 -20 148 0 9
45 12 190 12 l190 0 0 -320z m-1600 -512 c0 -77 22 -324 40 -448 11 -74 20
-141 20 -147 0 -10 -73 -13 -333 -13 l-334 0 -40 83 c-76 153 -125 318 -141
480 l-8 77 398 0 398 0 0 -32z m1115 -80 c-7 -133 -30 -342 -48 -448 l-13 -75
-414 0 -414 0 -13 75 c-18 106 -41 315 -48 448 l-7 112 482 0 482 0 -7 -112z
m485 -208 l0 -320 -190 0 c-145 0 -190 3 -190 13 0 6 9 73 20 147 17 118 40
381 40 454 l0 26 160 0 160 0 0 -320z m-1496 -492 c59 -205 122 -364 180 -456
15 -24 25 -46 23 -49 -8 -7 -208 62 -289 101 -154 73 -335 209 -447 335 -34
38 -61 71 -61 75 0 3 133 6 295 6 228 0 296 -3 299 -12z m901 -20 c-13 -59
-76 -222 -119 -302 -53 -102 -145 -200 -203 -217 -126 -36 -262 109 -366 391
-19 52 -38 110 -42 128 l-7 32 372 0 372 0 -7 -32z m620 11 c4 -11 20 -35 36
-54 l29 -33 -77 -72 c-147 -136 -336 -245 -533 -310 -122 -40 -126 -39 -89 15
55 82 137 287 185 463 3 9 56 12 223 12 213 0 220 -1 226 -21z"/>
<path d="M3920 2160 l0 -80 400 0 400 0 0 80 0 80 -400 0 -400 0 0 -80z"/>
<path d="M3920 1840 l0 -80 80 0 80 0 0 80 0 80 -80 0 -80 0 0 -80z"/>
<path d="M4240 1840 l0 -80 80 0 80 0 0 80 0 80 -80 0 -80 0 0 -80z"/>
<path d="M4560 1840 l0 -80 80 0 80 0 0 80 0 80 -80 0 -80 0 0 -80z"/>
<path d="M1520 2800 l0 -80 80 0 80 0 0 80 0 80 -80 0 -80 0 0 -80z"/>
<path d="M1840 2800 l0 -80 80 0 80 0 0 80 0 80 -80 0 -80 0 0 -80z"/>
<path d="M1360 2160 l0 -80 80 0 80 0 0 80 0 80 -80 0 -80 0 0 -80z"/>
<path d="M1680 2160 l0 -80 80 0 80 0 0 80 0 80 -80 0 -80 0 0 -80z"/>
<path d="M2353 906 c-288 -143 -523 -263 -523 -266 0 -3 236 -123 525 -268
l525 -262 0 105 0 105 760 0 760 0 0 80 0 80 -840 0 -840 0 0 -55 0 -55 -265
132 c-146 73 -265 135 -265 138 0 3 119 65 265 138 l265 132 0 -55 0 -55 1160
0 1160 0 0 80 0 80 -1080 0 -1079 0 -3 104 -3 104 -522 -262z"/>
<path d="M4560 400 l0 -80 80 0 80 0 0 80 0 80 -80 0 -80 0 0 -80z"/>
<path d="M4880 400 l0 -80 80 0 80 0 0 80 0 80 -80 0 -80 0 0 -80z"/>
</g>
</svg>
