<?xml version="1.0" standalone="no"?>
<!DOCTYPE svg PUBLIC "-//W3C//DTD SVG 20010904//EN"
 "http://www.w3.org/TR/2001/REC-SVG-20010904/DTD/svg10.dtd">
<svg version="1.0" xmlns="http://www.w3.org/2000/svg"
 width="512.000000pt" height="512.000000pt" viewBox="0 0 512.000000 512.000000"
 preserveAspectRatio="xMidYMid meet">

<g transform="translate(0.000000,512.000000) scale(0.100000,-0.100000)"
fill="#000000" stroke="none">
<path d="M2925 5102 c-60 -37 -220 -353 -296 -584 -59 -181 -79 -292 -86 -473
-4 -124 -2 -181 11 -255 41 -235 143 -435 300 -590 l56 -54 0 -305 0 -304 -54
59 c-48 53 -54 65 -59 114 -4 30 -18 96 -32 145 -105 363 -389 634 -814 775
-188 63 -465 110 -646 110 -74 0 -120 -26 -148 -82 -17 -34 -17 -41 -2 -105
91 -397 315 -701 645 -871 52 -28 127 -61 165 -75 170 -60 415 -91 625 -78
135 9 132 10 210 -106 48 -72 87 -160 97 -219 l5 -31 -88 -6 c-206 -14 -434
-77 -645 -178 l-126 -61 -68 21 c-113 35 -239 47 -351 33 -164 -21 -249 -56
-579 -241 l-300 -168 -39 26 c-31 20 -54 26 -110 29 l-71 3 -115 -66 c-63 -36
-128 -78 -144 -93 -63 -59 -83 -159 -47 -237 10 -22 161 -287 335 -590 210
-365 330 -562 355 -587 44 -42 106 -62 168 -55 56 6 277 131 315 178 41 51 55
116 40 185 l-11 56 51 47 c78 71 127 101 165 101 19 0 189 -50 378 -111 190
-61 371 -114 402 -119 45 -6 200 6 693 56 349 35 660 69 690 75 30 6 78 22
106 34 72 32 939 630 964 665 95 134 49 325 -95 396 -76 36 -155 32 -243 -14
l-63 -33 -42 33 c-23 18 -109 87 -192 152 -230 183 -379 273 -584 351 -159 60
-411 115 -530 115 l-44 0 7 42 c9 65 89 216 143 274 l48 51 105 -7 c213 -14
466 17 635 77 120 43 184 80 191 109 10 38 -7 77 -38 92 -24 11 -36 9 -115
-24 -99 -41 -189 -69 -278 -85 -87 -16 -269 -28 -306 -20 l-31 6 88 71 c213
170 493 366 764 535 193 121 351 212 357 206 15 -16 -76 -217 -150 -329 -29
-46 -75 -106 -100 -134 -37 -41 -47 -59 -47 -86 0 -43 29 -71 72 -71 26 0 42
10 88 61 115 125 221 313 280 497 57 178 52 240 -23 285 -83 51 -508 -6 -787
-105 -440 -156 -719 -465 -795 -880 -16 -86 -19 -93 -71 -149 l-54 -59 0 308
0 308 69 72 c128 135 221 303 267 482 32 124 42 325 25 469 -33 261 -143 566
-301 837 -68 116 -122 143 -195 99z m-15 -1029 l0 -717 -41 55 c-56 74 -124
218 -150 314 -27 100 -36 314 -20 438 23 171 83 366 168 550 20 42 38 77 40
77 1 0 3 -323 3 -717z m280 420 c70 -210 84 -292 84 -498 0 -154 -3 -191 -22
-257 -39 -142 -97 -263 -164 -341 l-27 -32 0 715 1 715 43 -90 c24 -49 62
-145 85 -212z m-1502 -949 c422 -85 728 -286 872 -573 37 -74 62 -142 56 -149
-3 -2 -29 16 -58 40 -169 143 -616 454 -873 607 -77 46 -144 88 -150 93 -11
11 34 5 153 -18z m2761 22 c-2 -2 -76 -47 -164 -101 -296 -181 -742 -493 -884
-617 -18 -16 -35 -27 -37 -25 -9 9 47 143 88 211 55 93 184 225 284 292 150
100 337 174 553 219 106 22 171 30 160 21z m-2910 -183 c370 -223 660 -424
984 -684 20 -16 20 -17 1 -23 -28 -8 -258 10 -347 29 -300 62 -543 224 -703
469 -50 77 -126 239 -149 314 -9 29 -20 35 214 -105z m1591 -1364 c289 -27
560 -119 790 -267 73 -47 389 -294 393 -307 3 -9 -323 -181 -410 -216 -67 -27
-147 -50 -219 -63 l-32 -5 -4 57 c-8 116 -89 232 -199 288 -48 24 -92 31 -403
70 -192 24 -370 50 -395 59 -26 8 -78 34 -116 57 -39 23 -123 69 -188 103
l-118 62 63 26 c169 71 364 121 534 136 132 12 177 12 304 0z m-1200 -213
c124 -36 271 -98 385 -163 187 -106 240 -133 305 -153 38 -12 196 -37 393 -61
181 -22 344 -46 361 -53 42 -19 82 -58 106 -106 23 -44 27 -120 8 -120 -7 0
-182 -11 -388 -25 -206 -14 -378 -25 -382 -25 -21 0 -48 -43 -48 -74 0 -54 39
-80 110 -72 55 6 347 26 690 46 212 13 319 30 431 66 43 15 227 105 410 200
334 175 372 190 409 161 49 -38 64 -106 34 -155 -16 -26 -801 -573 -888 -619
-22 -12 -61 -26 -86 -32 -62 -15 -1209 -132 -1295 -133 -63 0 -107 12 -415
112 -390 126 -439 136 -530 101 -35 -13 -81 -44 -123 -81 -37 -33 -72 -60 -76
-60 -4 0 -64 96 -131 214 -141 245 -161 264 -224 215 -48 -38 -39 -60 139
-369 91 -156 165 -294 165 -305 0 -12 -6 -28 -12 -37 -18 -22 -206 -128 -228
-128 -10 0 -27 8 -38 18 -31 26 -662 1128 -662 1155 0 30 14 42 123 106 90 52
134 63 160 37 7 -8 48 -75 90 -149 86 -151 110 -172 165 -143 57 29 56 57 -8
170 -28 49 -50 93 -50 97 0 6 473 276 575 327 147 74 352 89 525 38z"/>
</g>
</svg>
