<?xml version="1.0" standalone="no"?>
<!DOCTYPE svg PUBLIC "-//W3C//DTD SVG 20010904//EN"
 "http://www.w3.org/TR/2001/REC-SVG-20010904/DTD/svg10.dtd">
<svg version="1.0" xmlns="http://www.w3.org/2000/svg"
 width="512.000000pt" height="512.000000pt" viewBox="0 0 512.000000 512.000000"
 preserveAspectRatio="xMidYMid meet">

<g transform="translate(0.000000,512.000000) scale(0.100000,-0.100000)"
fill="#000000" stroke="none">
<path d="M2071 5105 c-93 -21 -148 -41 -224 -83 -221 -122 -370 -350 -393
-603 l-7 -66 -141 -6 c-147 -7 -271 -27 -416 -70 -109 -32 -225 -78 -251 -100
-30 -26 -23 -84 13 -110 31 -23 5 -29 224 47 201 70 431 99 598 77 141 -19
234 -56 328 -132 40 -32 71 -49 101 -53 70 -12 186 -74 243 -131 95 -95 137
-210 153 -418 6 -72 17 -134 31 -172 42 -114 7 -220 -104 -322 -45 -40 -67
-53 -85 -51 -27 3 -28 5 -86 130 -27 58 -56 98 -124 171 -88 94 -117 136 -140
209 -31 96 -97 119 -148 51 -111 -148 -195 -180 -508 -193 -148 -6 -220 -14
-278 -29 -153 -40 -280 -122 -348 -224 -68 -102 -77 -109 -109 -92 -46 24
-109 104 -125 158 -20 67 -19 113 3 184 14 45 18 80 14 146 -2 48 1 115 7 150
17 87 80 211 145 286 31 36 56 74 56 86 0 38 -37 75 -75 75 -27 0 -42 -10 -91
-63 -75 -81 -119 -154 -157 -264 -26 -76 -31 -105 -34 -218 -2 -71 -11 -157
-19 -191 -18 -76 -18 -144 1 -213 l14 -53 -29 -25 c-16 -13 -43 -52 -59 -86
-89 -183 -55 -446 75 -581 47 -49 133 -83 180 -72 28 7 26 10 44 -89 22 -121
79 -257 153 -364 47 -68 163 -186 231 -235 61 -43 180 -108 224 -121 21 -6 23
-11 20 -78 l-3 -70 -137 -46 c-76 -25 -148 -55 -160 -66 -13 -11 -51 -32 -85
-46 -127 -55 -271 -179 -358 -308 -123 -186 -175 -377 -175 -649 0 -128 1
-134 25 -157 l24 -25 1196 0 1196 0 26 26 26 26 -6 176 c-10 305 -55 428 -145
396 -49 -17 -56 -52 -32 -147 13 -50 24 -130 27 -204 l6 -123 -433 0 c-238 0
-431 2 -429 4 2 1 56 40 119 86 63 45 123 92 132 104 14 16 18 41 18 108 l0
86 65 52 c36 28 70 62 75 76 6 14 10 95 10 180 l0 155 52 -28 c28 -15 96 -70
150 -120 53 -51 106 -93 116 -93 36 0 72 38 72 76 0 28 -10 46 -47 86 -98 106
-192 176 -293 219 -30 12 -65 32 -77 43 -12 11 -84 41 -160 67 l-138 46 -3 69
-3 70 53 22 c191 79 391 260 477 430 l21 42 435 0 435 0 6 -26 c10 -41 -14
-161 -41 -204 -17 -28 -43 -49 -84 -70 -96 -48 -118 -105 -62 -161 26 -26 37
-29 89 -29 136 0 304 46 395 109 108 74 166 175 202 354 l5 27 449 0 c417 0
453 1 527 20 305 78 527 321 574 627 7 45 10 377 8 988 l-3 920 -23 75 c-80
260 -273 452 -532 532 -74 22 -82 22 -715 26 -352 1 -650 0 -662 -3 -33 -8
-53 -33 -53 -68 1 -79 -20 -77 672 -77 684 0 693 -1 827 -67 106 -52 222 -168
274 -274 68 -139 67 -115 67 -1104 0 -995 1 -967 -70 -1113 -73 -147 -211
-262 -372 -309 -79 -23 -88 -23 -558 -23 -311 0 -488 -4 -508 -11 -36 -12 -48
-40 -57 -132 -12 -142 -70 -234 -181 -288 -35 -18 -67 -30 -69 -27 -3 3 4 25
14 49 42 94 50 235 20 342 -18 67 -20 67 -514 67 -429 0 -436 0 -430 20 3 10
12 49 18 86 l13 67 50 2 c131 5 231 114 269 294 37 179 -6 371 -102 450 l-33
28 17 39 c24 56 24 203 -1 264 -10 25 -20 68 -22 95 -22 286 -74 427 -208 560
-76 75 -178 134 -271 157 -28 7 -71 29 -99 51 -61 47 -120 77 -208 106 l-68
23 0 46 c1 268 218 530 486 587 53 11 154 15 437 15 421 0 427 1 427 75 0 74
-5 75 -437 74 -282 0 -394 -4 -442 -14z m-365 -1857 c9 -17 54 -71 101 -121
72 -75 93 -106 133 -191 51 -110 85 -148 150 -167 l40 -12 0 -232 c0 -161 -5
-259 -15 -318 -54 -312 -289 -561 -610 -648 -108 -30 -288 -32 -395 -5 -326
82 -565 344 -620 678 -5 35 -10 172 -10 304 l0 241 35 24 c20 13 59 57 87 98
60 86 94 120 161 156 94 52 166 66 387 75 268 12 375 39 489 124 19 14 38 26
43 26 4 0 15 -14 24 -32z m738 -459 c45 -150 -19 -372 -109 -380 -58 -6 -55
-16 -55 200 l0 200 48 45 47 46 27 -30 c15 -16 34 -53 42 -81z m-2114 -186 c0
-177 -1 -193 -17 -195 -37 -3 -58 3 -81 25 -96 89 -110 342 -25 439 14 16 19
14 69 -29 l54 -47 0 -193z m1150 -1298 l0 -95 -175 0 -175 0 0 90 0 90 118 -6
c91 -4 204 3 230 15 1 0 2 -42 2 -94z m-485 -246 c8 -39 54 -231 101 -427 46
-196 83 -359 82 -363 -2 -4 -54 30 -115 74 l-113 82 0 87 c0 100 -10 118 -99
178 l-51 35 0 177 0 176 73 25 c106 37 103 38 122 -44z m737 45 l78 -26 0
-176 0 -177 -51 -35 c-89 -60 -99 -78 -99 -178 l0 -87 -112 -82 c-62 -44 -114
-78 -116 -74 -1 4 36 167 82 363 47 196 93 388 101 427 9 39 22 71 28 71 7 0
47 -12 89 -26z m-272 -48 c0 -3 -34 -147 -75 -320 -41 -173 -75 -318 -75 -322
0 -28 -18 40 -84 319 -42 175 -76 320 -76 323 0 2 70 4 155 4 85 0 155 -2 155
-4z m-790 -410 c8 -10 40 -38 72 -63 l58 -44 0 -87 c0 -67 4 -92 18 -108 9
-12 69 -59 132 -104 63 -46 117 -85 119 -86 2 -2 -190 -4 -427 -4 l-432 0 0
73 c1 264 94 495 263 653 35 34 89 75 118 92 l54 31 5 -168 c4 -127 9 -172 20
-185z"/>
<path d="M850 2733 c-61 -11 -102 -25 -121 -44 -27 -27 -24 -70 6 -99 20 -19
31 -22 67 -17 24 4 63 9 89 13 29 4 68 0 108 -10 86 -22 106 -20 130 10 28 36
26 60 -7 94 -43 42 -179 69 -272 53z"/>
<path d="M1576 2721 c-105 -28 -140 -78 -95 -135 24 -31 41 -32 132 -10 60 15
78 15 154 4 l86 -14 23 28 c29 33 31 69 5 95 -45 45 -199 61 -305 32z"/>
<path d="M852 2210 c-49 -45 -19 -117 88 -213 159 -143 412 -176 615 -82 164
75 271 231 203 295 -24 22 -65 26 -88 7 -9 -7 -26 -29 -39 -49 -91 -149 -330
-199 -518 -107 -45 22 -79 49 -124 99 -68 77 -97 87 -137 50z"/>
<path d="M3532 4773 c-88 -31 -142 -120 -142 -233 0 -25 15 -108 34 -184 23
-94 30 -139 22 -142 -55 -19 -138 -26 -366 -33 -287 -8 -315 -13 -373 -69 -73
-69 -91 -182 -43 -268 l25 -44 -25 -44 c-52 -92 -28 -208 57 -278 36 -31 40
-37 30 -56 -18 -34 -13 -128 8 -171 18 -35 63 -81 104 -106 14 -8 15 -16 5
-50 -25 -93 22 -195 111 -242 l45 -23 605 2 606 3 47 23 c65 32 125 94 156
160 l27 57 3 303 c3 257 1 311 -13 359 -31 108 -106 198 -285 348 -119 100
-184 169 -225 239 -13 23 -54 115 -90 206 -90 221 -93 229 -126 245 -36 19
-141 18 -197 -2z m182 -293 c108 -269 161 -346 332 -486 110 -90 224 -206 251
-256 16 -30 18 -64 18 -339 l0 -305 -25 -37 c-13 -20 -41 -45 -61 -56 -36 -21
-50 -21 -608 -21 -558 0 -571 0 -591 20 -23 23 -26 59 -7 81 6 8 31 27 54 42
52 33 65 76 36 115 -24 32 -49 40 -127 41 -71 1 -96 19 -96 66 0 61 24 77 129
84 100 7 121 19 121 69 0 65 -41 82 -195 82 -131 0 -159 12 -157 69 1 60 19
68 162 76 108 6 132 11 146 26 24 27 22 76 -5 102 -19 20 -34 22 -146 26 -131
3 -150 10 -155 56 -5 41 1 55 27 72 23 16 61 19 278 24 344 9 462 35 499 113
22 48 20 73 -19 226 -43 165 -45 211 -10 246 18 18 34 24 56 22 30 -3 33 -8
93 -158z"/>
</g>
</svg>
