<?xml version="1.0" standalone="no"?>
<!DOCTYPE svg PUBLIC "-//W3C//DTD SVG 20010904//EN"
 "http://www.w3.org/TR/2001/REC-SVG-20010904/DTD/svg10.dtd">
<svg version="1.0" xmlns="http://www.w3.org/2000/svg"
 width="512.000000pt" height="512.000000pt" viewBox="0 0 512.000000 512.000000"
 preserveAspectRatio="xMidYMid meet">

<g transform="translate(0.000000,512.000000) scale(0.100000,-0.100000)"
fill="#000000" stroke="none">
<path d="M2405 5114 c-149 -20 -194 -29 -290 -54 -243 -64 -471 -181 -667
-344 -62 -52 -68 -60 -68 -95 0 -46 24 -71 69 -71 25 0 51 14 110 62 309 250
689 374 1076 354 180 -10 209 -16 213 -44 8 -55 -89 -197 -157 -231 -43 -22
-52 -24 -222 -56 -231 -42 -343 -90 -445 -190 -60 -60 -73 -82 -164 -280 -20
-42 -34 -64 -38 -55 -44 128 -87 191 -149 217 -77 32 -166 3 -233 -75 -79 -93
-89 -156 -45 -282 28 -77 28 -100 5 -182 -11 -36 -11 -55 -2 -85 27 -90 204
-257 350 -330 l77 -38 135 0 c123 0 139 -3 180 -24 67 -35 144 -120 250 -275
145 -212 166 -229 344 -292 130 -45 246 -137 246 -195 0 -38 -42 -129 -81
-173 -52 -59 -131 -97 -292 -141 -70 -19 -149 -46 -175 -59 -83 -43 -195 -128
-278 -211 l-81 -82 -74 27 c-41 15 -98 39 -127 54 -61 31 -61 23 -8 141 110
248 86 348 -135 565 -107 105 -129 132 -139 170 -18 67 -6 140 37 233 43 92
48 147 17 195 -11 17 -84 76 -164 131 -222 153 -341 257 -438 382 -28 37 89
315 208 493 39 57 70 114 70 126 0 30 -44 70 -78 70 -35 0 -63 -28 -135 -140
-140 -217 -224 -444 -263 -710 -21 -149 -15 -419 14 -560 97 -470 362 -863
757 -1123 173 -114 369 -195 590 -244 137 -30 411 -42 562 -24 689 83 1279
587 1458 1246 41 150 56 251 62 415 17 493 -165 951 -514 1291 -259 253 -562
409 -922 474 -82 15 -383 28 -446 19z m816 -290 l77 -36 4 -77 c4 -99 35 -162
126 -261 61 -66 69 -79 65 -106 -3 -17 2 -59 11 -92 8 -34 12 -70 8 -81 -4
-11 -38 -47 -75 -81 -79 -73 -151 -170 -178 -240 -10 -27 -23 -88 -29 -136
-23 -206 36 -363 184 -482 73 -59 132 -90 244 -127 95 -31 118 -54 108 -108
-9 -48 -70 -171 -163 -327 -103 -173 -155 -278 -182 -364 -22 -72 -28 -177
-11 -220 8 -23 5 -28 -50 -61 -227 -138 -513 -215 -796 -215 -134 0 -283 14
-312 29 -22 12 150 152 247 201 25 12 101 38 170 57 162 44 237 81 315 153 71
67 117 149 137 245 10 52 10 68 -5 119 -33 114 -177 223 -383 290 -94 31 -90
27 -221 222 -140 207 -246 305 -376 346 -51 17 -78 19 -159 14 -84 -5 -105 -3
-142 13 -86 38 -217 139 -264 203 -28 37 -28 39 -14 90 16 61 12 142 -13 208
-37 102 -37 97 8 146 22 24 45 44 51 44 24 0 48 -38 72 -115 29 -96 52 -129
101 -145 93 -31 160 30 243 219 29 66 66 139 82 160 65 91 178 140 426 185
198 37 243 55 325 137 68 67 130 173 144 245 l6 32 71 -24 c40 -14 106 -41
148 -60z m310 -185 c330 -262 533 -615 595 -1033 22 -145 14 -387 -16 -531
-67 -316 -202 -567 -430 -795 -120 -121 -124 -124 -128 -96 -9 68 43 179 232
500 155 264 172 385 68 486 -37 35 -64 50 -122 69 -116 36 -176 68 -240 127
-96 90 -129 189 -110 337 14 109 46 165 155 272 128 125 146 168 120 283 -9
36 -13 80 -9 98 10 54 -1 76 -81 165 -65 71 -115 143 -115 164 0 13 21 1 81
-46z m-2276 -1264 c61 -45 145 -105 187 -133 l77 -52 -29 -57 c-60 -121 -74
-235 -41 -342 24 -77 71 -141 161 -216 93 -78 157 -162 165 -218 7 -47 -11
-112 -63 -225 l-28 -64 -75 56 c-394 297 -629 766 -629 1258 0 69 3 146 6 171
l7 47 76 -72 c42 -39 126 -108 186 -153z"/>
<path d="M164 2540 c-17 -6 -50 -30 -72 -54 -63 -68 -64 -104 -12 -295 70
-255 96 -329 169 -476 160 -324 232 -401 651 -690 225 -155 252 -176 312 -233
35 -34 55 -45 78 -45 41 0 73 32 73 74 0 27 -11 43 -64 93 -36 34 -116 97
-179 140 -510 354 -557 397 -690 635 -85 154 -125 257 -186 475 -52 188 -56
208 -42 222 32 33 52 9 128 -158 41 -89 92 -188 113 -220 86 -129 290 -310
445 -394 50 -28 111 -80 242 -210 108 -107 185 -175 202 -179 22 -6 33 -1 58
23 16 17 30 41 30 53 0 16 -52 75 -174 198 -138 140 -187 197 -240 280 -36 58
-66 110 -66 117 0 20 46 47 63 37 7 -4 108 -108 223 -231 l209 -223 272 -134
c214 -105 283 -143 323 -181 71 -66 116 -162 134 -283 15 -104 26 -121 82
-121 24 0 39 8 54 27 19 24 21 36 15 88 -17 171 -65 277 -174 386 -74 74 -82
79 -342 206 l-265 130 -213 224 c-116 123 -228 232 -248 242 -20 11 -57 19
-88 19 -98 1 -169 -62 -190 -168 l-11 -54 -83 82 c-121 120 -153 166 -232 344
-40 87 -80 171 -91 186 -41 59 -140 90 -214 68z"/>
<path d="M4814 2531 c-57 -26 -80 -61 -163 -245 -84 -186 -100 -209 -224 -334
-81 -82 -92 -91 -95 -70 -12 87 -53 152 -115 185 -46 24 -130 19 -177 -9 -21
-13 -136 -125 -255 -250 -119 -126 -220 -228 -224 -228 -5 0 -118 -54 -252
-120 -157 -77 -264 -135 -299 -165 -68 -56 -141 -163 -169 -247 -30 -91 -45
-213 -31 -248 15 -36 57 -55 93 -41 34 13 43 35 57 136 13 100 53 188 117 256
43 46 78 66 325 188 l277 136 212 225 c117 124 219 229 226 233 17 10 63 -17
63 -37 0 -7 -30 -59 -66 -117 -53 -83 -102 -140 -240 -280 -122 -123 -174
-182 -174 -198 0 -12 14 -36 30 -53 25 -24 36 -29 58 -23 16 4 95 73 202 179
130 129 192 182 242 209 152 84 355 263 440 387 21 30 73 132 116 225 82 175
100 198 132 160 11 -13 4 -48 -44 -223 -60 -213 -103 -321 -189 -477 -123
-223 -186 -284 -557 -540 -228 -158 -252 -176 -317 -239 -45 -43 -53 -56 -53
-87 0 -44 28 -72 71 -71 23 0 45 14 87 54 32 30 157 123 278 207 356 245 449
327 544 473 67 103 163 287 203 388 33 84 137 458 137 493 0 40 -27 97 -63
135 -51 53 -130 66 -203 33z"/>
<path d="M1305 586 c-39 -17 -70 -52 -90 -98 -11 -28 -15 -74 -15 -180 0 -158
8 -203 46 -247 51 -61 57 -62 610 -59 l501 3 37 29 c64 48 76 88 76 261 0 168
-7 205 -47 248 -57 59 -38 57 -585 57 -397 -1 -509 -4 -533 -14z m1010 -286
l0 -145 -480 0 -480 0 -3 134 c-1 74 0 141 2 148 4 11 97 13 483 11 l478 -3 0
-145z"/>
<path d="M2745 581 c-40 -24 -71 -60 -84 -94 -6 -16 -11 -98 -11 -185 0 -181
11 -219 76 -268 l37 -29 501 -3 c553 -3 559 -2 610 59 38 44 46 90 46 249 0
120 -4 152 -19 185 -21 46 -54 79 -94 94 -19 7 -199 11 -530 11 -472 0 -504
-1 -532 -19z m1020 -281 l0 -145 -480 0 -480 0 -3 134 c-1 74 0 141 2 148 4
11 97 13 483 11 l478 -3 0 -145z"/>
</g>
</svg>
