<?xml version="1.0" standalone="no"?>
<!DOCTYPE svg PUBLIC "-//W3C//DTD SVG 20010904//EN"
 "http://www.w3.org/TR/2001/REC-SVG-20010904/DTD/svg10.dtd">
<svg version="1.0" xmlns="http://www.w3.org/2000/svg"
 width="512.000000pt" height="512.000000pt" viewBox="0 0 512.000000 512.000000"
 preserveAspectRatio="xMidYMid meet">

<g transform="translate(0.000000,512.000000) scale(0.100000,-0.100000)"
fill="#000000" stroke="none">
<path d="M1792 5113 c-7 -3 -19 -17 -27 -33 -13 -25 -10 -52 31 -296 46 -273
57 -309 100 -324 30 -12 82 14 90 44 3 15 -8 108 -25 208 -17 100 -29 183 -27
186 3 2 138 -66 302 -152 181 -95 308 -156 325 -156 18 0 143 61 324 156 163
86 298 154 301 152 2 -3 -21 -148 -51 -324 -30 -175 -55 -332 -55 -349 0 -25
35 -63 252 -275 l251 -246 -334 -48 c-184 -27 -344 -52 -357 -57 -18 -7 -58
-80 -175 -319 -83 -171 -154 -310 -157 -310 -3 0 -74 139 -157 310 -117 239
-157 312 -175 319 -13 5 -173 30 -357 57 l-334 48 251 246 c226 221 252 249
252 278 0 42 -30 72 -74 72 -30 0 -59 -25 -307 -266 -151 -146 -293 -285 -316
-309 -49 -50 -54 -81 -20 -119 21 -24 41 -28 405 -81 211 -30 390 -55 398 -55
9 0 82 -135 197 -367 254 -512 221 -512 473 -3 l181 365 399 58 c380 55 400
58 422 83 39 44 30 70 -55 153 -43 42 -175 171 -294 287 l-216 211 68 398 c64
368 67 399 54 426 -23 43 -57 47 -124 14 -31 -15 -192 -98 -358 -186 -166 -87
-306 -159 -311 -159 -6 0 -169 83 -364 185 -330 173 -373 192 -406 178z"/>
<path d="M268 4501 c-31 -10 -72 -28 -91 -40 -52 -32 -116 -106 -145 -169
l-27 -57 -3 -965 c-3 -1069 -3 -1060 61 -1190 18 -36 258 -383 535 -772 l502
-706 0 -277 0 -276 25 -24 24 -25 644 0 644 0 21 23 22 23 0 720 c0 804 3 771
-71 924 -41 84 -46 90 -550 595 l-508 510 -3 245 -3 245 -29 62 c-34 75 -112
153 -188 188 -29 14 -58 25 -65 25 -8 0 -12 53 -15 188 -3 179 -4 190 -30 244
-15 32 -48 80 -73 107 -46 50 -150 111 -187 111 -11 0 -18 7 -18 18 0 37 -61
141 -111 187 -99 93 -239 127 -361 86z m173 -142 c48 -17 95 -54 127 -102 l27
-41 5 -830 5 -831 33 -70 c31 -66 68 -104 580 -617 381 -381 556 -549 575
-554 43 -10 81 22 85 71 l3 38 -550 551 c-462 462 -553 558 -566 595 -30 87
-12 164 55 232 70 70 163 87 251 45 20 -9 284 -266 605 -589 422 -423 577
-585 597 -623 57 -109 57 -110 57 -826 l0 -658 -540 0 -540 0 0 249 0 248
-119 169 c-66 93 -302 426 -525 739 -287 404 -412 587 -428 630 l-23 60 -3
960 c-2 697 0 971 9 1001 31 115 169 190 280 153z m387 -356 c29 -29 52 -64
60 -89 9 -30 12 -162 12 -471 l0 -430 -60 -22 c-32 -12 -62 -26 -65 -31 -22
-36 -25 31 -25 540 0 621 -5 587 78 503z m300 -650 c62 -63 72 -99 72 -267 0
-75 -1 -136 -2 -136 -2 0 -30 14 -62 30 -32 17 -65 30 -72 30 -11 0 -14 37
-14 195 0 225 0 226 78 148z"/>
<path d="M4657 4510 c-101 -26 -203 -110 -248 -205 -16 -33 -29 -68 -29 -77 0
-10 -8 -18 -17 -18 -36 0 -125 -51 -177 -100 -34 -32 -64 -73 -82 -113 -28
-60 -29 -67 -32 -249 -3 -135 -7 -188 -15 -188 -7 0 -36 -11 -65 -25 -76 -35
-154 -113 -188 -188 l-29 -62 -3 -245 -3 -245 -508 -510 c-504 -505 -509 -511
-550 -595 -74 -153 -71 -120 -71 -925 l0 -722 23 -21 23 -22 643 0 642 0 24
25 25 24 0 276 0 277 503 706 c276 389 516 736 534 772 64 130 64 121 61 1190
l-3 965 -33 67 c-41 84 -120 158 -200 188 -64 25 -168 34 -225 20z m179 -164
c60 -28 108 -82 123 -140 9 -30 11 -304 9 -1001 l-3 -960 -23 -60 c-16 -43
-141 -226 -428 -630 -223 -313 -459 -646 -525 -739 l-119 -169 0 -248 0 -249
-540 0 -540 0 0 658 c0 716 0 717 57 826 20 38 175 200 597 623 321 323 585
580 605 589 146 69 321 -41 321 -203 0 -87 -2 -89 -581 -669 l-550 -551 3 -38
c4 -49 42 -81 85 -71 19 5 194 173 575 554 512 513 549 551 580 617 l33 70 5
831 5 830 27 41 c69 104 178 138 284 89z m-466 -846 c0 -302 -2 -550 -5 -550
-2 0 -19 9 -37 20 -18 11 -50 25 -70 31 l-38 10 0 431 c0 310 3 442 12 472 13
44 96 136 123 136 13 0 15 -60 15 -550z m-300 -295 c0 -158 -3 -195 -14 -195
-7 0 -40 -13 -72 -30 -32 -16 -60 -30 -61 -30 -2 0 -3 61 -3 136 0 168 10 204
72 267 78 78 78 77 78 -148z"/>
</g>
</svg>
