<?xml version="1.0" standalone="no"?>
<!DOCTYPE svg PUBLIC "-//W3C//DTD SVG 20010904//EN"
 "http://www.w3.org/TR/2001/REC-SVG-20010904/DTD/svg10.dtd">
<svg version="1.0" xmlns="http://www.w3.org/2000/svg"
 width="512.000000pt" height="512.000000pt" viewBox="0 0 512.000000 512.000000"
 preserveAspectRatio="xMidYMid meet">

<g transform="translate(0.000000,512.000000) scale(0.100000,-0.100000)"
fill="#000000" stroke="none">
<path d="M441 5024 c-169 -45 -301 -180 -346 -351 -23 -86 -23 -4140 0 -4226
45 -173 178 -307 350 -352 89 -23 1901 -23 1990 0 172 45 305 179 350 352 13
48 15 174 15 805 l0 748 455 0 456 0 24 25 25 24 0 474 0 474 53 -15 c76 -21
295 -22 372 0 214 59 372 171 486 346 88 134 124 258 124 432 0 174 -36 298
-124 432 -282 431 -879 492 -1239 127 -84 -84 -153 -199 -188 -309 l-29 -90
-207 0 -208 0 0 348 c0 280 -3 359 -15 407 -45 172 -179 305 -352 350 -84 22
-1910 21 -1992 -1z m2015 -176 c76 -40 107 -70 144 -140 32 -60 34 -69 38
-185 l4 -123 -1202 0 -1202 0 4 123 c4 102 8 130 29 172 41 86 123 154 214
176 17 4 455 6 975 6 l945 -2 51 -27z m1679 -463 c216 -45 409 -223 478 -440
31 -99 31 -271 0 -370 -63 -199 -229 -365 -428 -428 -99 -31 -271 -31 -370 0
-267 85 -455 338 -455 613 0 236 140 463 350 568 137 69 278 88 425 57z
m-1495 -305 l0 -160 -455 0 -456 0 -24 -25 -25 -24 0 -911 0 -911 25 -24 24
-25 456 0 455 0 0 -400 0 -400 -1200 0 -1200 0 0 1520 0 1520 1200 0 1200 0 0
-160z m-240 -695 l0 -376 25 -24 c15 -16 35 -25 56 -25 27 0 48 16 135 102
l104 102 104 -102 c87 -86 108 -102 135 -102 21 0 41 9 56 25 l25 24 0 376 0
375 80 0 80 0 0 -34 c0 -49 25 -171 50 -241 47 -135 172 -296 297 -382 l53
-36 0 -294 0 -293 -880 0 -880 0 0 640 0 640 280 0 280 0 0 -375z m480 113 l0
-261 -64 61 c-51 49 -71 62 -96 62 -25 0 -45 -13 -96 -62 l-64 -61 0 261 0
262 160 0 160 0 0 -262z m720 -1258 l0 -80 -880 0 -880 0 0 80 0 80 880 0 880
0 0 -80z m-962 -1482 l-3 -283 -34 -63 c-38 -70 -69 -100 -145 -140 l-51 -27
-965 0 -965 0 -51 27 c-76 40 -107 70 -145 140 l-34 63 -3 283 -3 282 1201 0
1201 0 -3 -282z"/>
<path d="M1200 4640 l0 -80 240 0 240 0 0 80 0 80 -240 0 -240 0 0 -80z"/>
<path d="M4048 3843 l-208 -208 -48 48 c-26 26 -52 47 -58 47 -13 0 -104 -93
-104 -106 0 -6 40 -49 89 -97 131 -128 103 -139 403 160 136 136 248 252 248
258 0 13 -92 105 -105 105 -6 0 -103 -93 -217 -207z"/>
<path d="M761 3744 c-81 -22 -149 -62 -216 -129 -125 -125 -168 -278 -130
-458 21 -102 54 -159 244 -425 123 -172 180 -244 197 -248 54 -14 67 -1 245
248 190 266 223 323 244 425 27 125 12 246 -43 347 -35 65 -133 163 -198 198
-104 56 -233 72 -343 42z m241 -172 c65 -28 133 -94 165 -161 38 -77 39 -197
2 -284 -21 -51 -276 -426 -289 -426 -13 0 -268 375 -288 424 -13 31 -25 84
-29 118 -22 240 224 424 439 329z"/>
<path d="M800 2240 l0 -80 80 0 80 0 0 80 0 80 -80 0 -80 0 0 -80z"/>
<path d="M800 1920 l0 -80 80 0 80 0 0 80 0 80 -80 0 -80 0 0 -80z"/>
<path d="M800 1600 l0 -80 80 0 80 0 0 80 0 80 -80 0 -80 0 0 -80z"/>
<path d="M1120 1600 l0 -80 80 0 80 0 0 80 0 80 -80 0 -80 0 0 -80z"/>
<path d="M1440 1600 l0 -80 80 0 80 0 0 80 0 80 -80 0 -80 0 0 -80z"/>
<path d="M1760 1600 l0 -80 80 0 80 0 0 80 0 80 -80 0 -80 0 0 -80z"/>
<path d="M2080 1600 l0 -80 80 0 80 0 0 80 0 80 -80 0 -80 0 0 -80z"/>
<path d="M2400 1600 l0 -80 80 0 80 0 0 80 0 80 -80 0 -80 0 0 -80z"/>
<path d="M1360 867 c-49 -16 -133 -102 -148 -153 -28 -94 -8 -169 63 -239 101
-102 229 -102 330 0 98 97 101 222 8 325 -65 72 -158 97 -253 67z m135 -172
c50 -49 15 -135 -55 -135 -41 0 -80 39 -80 80 0 19 9 40 25 55 15 16 36 25 55
25 19 0 40 -9 55 -25z"/>
<path d="M2880 1600 l0 -80 80 0 80 0 0 80 0 80 -80 0 -80 0 0 -80z"/>
<path d="M3200 1600 l0 -80 80 0 80 0 0 80 0 80 -80 0 -80 0 0 -80z"/>
<path d="M4441 1504 c-81 -22 -149 -62 -216 -129 -125 -125 -168 -278 -130
-458 21 -102 54 -159 244 -425 123 -172 180 -244 197 -248 54 -14 67 -1 245
248 190 266 223 323 244 425 27 125 12 246 -43 347 -35 65 -133 163 -198 198
-104 56 -233 72 -343 42z m241 -172 c65 -28 133 -94 165 -161 38 -77 39 -197
2 -284 -21 -51 -276 -426 -289 -426 -13 0 -268 375 -288 424 -13 31 -25 84
-29 118 -22 240 224 424 439 329z"/>
<path d="M3200 1280 l0 -80 80 0 80 0 0 80 0 80 -80 0 -80 0 0 -80z"/>
<path d="M3200 960 l0 -80 80 0 80 0 0 80 0 80 -80 0 -80 0 0 -80z"/>
<path d="M3200 640 l0 -80 80 0 80 0 0 80 0 80 -80 0 -80 0 0 -80z"/>
<path d="M3200 320 l0 -80 80 0 80 0 0 80 0 80 -80 0 -80 0 0 -80z"/>
<path d="M3520 320 l0 -80 80 0 80 0 0 80 0 80 -80 0 -80 0 0 -80z"/>
<path d="M3840 320 l0 -80 80 0 80 0 0 80 0 80 -80 0 -80 0 0 -80z"/>
<path d="M4160 320 l0 -80 80 0 80 0 0 80 0 80 -80 0 -80 0 0 -80z"/>
</g>
</svg>
